<svg xmlns="http://www.w3.org/2000/svg" xmlns:xlink="http://www.w3.org/1999/xlink" width="500" zoomAndPan="magnify" viewBox="0 0 375 374.999991" height="500" preserveAspectRatio="xMidYMid meet" version="1.0"><defs><clipPath id="2694266bfc"><path d="M 74.515625 109 L 152 109 L 152 159 L 74.515625 159 Z M 74.515625 109 " clip-rule="nonzero"/></clipPath><clipPath id="f488c551d8"><path d="M 219 119 L 300.265625 119 L 300.265625 168 L 219 168 Z M 219 119 " clip-rule="nonzero"/></clipPath></defs><g clip-path="url(#2694266bfc)"><path fill="#5e17eb" d="M 106 156.519531 C 84.730469 149.964844 74.523438 121.867188 74.523438 121.867188 C 74.523438 121.867188 98.804688 104.421875 120.050781 110.992188 C 141.3125 117.570312 151.511719 145.679688 151.511719 145.679688 C 151.511719 145.679688 127.269531 163.132812 106 156.519531 " fill-opacity="1" fill-rule="nonzero"/></g><path fill="#5e17eb" d="M 121.566406 227.464844 C 102.253906 216.386719 98.453125 186.734375 98.453125 186.734375 C 98.453125 186.734375 125.96875 175.046875 145.257812 186.121094 C 164.5625 197.210938 168.347656 226.878906 168.347656 226.878906 C 168.347656 226.878906 140.867188 238.578125 121.566406 227.464844 " fill-opacity="1" fill-rule="nonzero"/><path fill="#5e17eb" d="M 123.550781 65.160156 C 123.40625 42.890625 147.109375 24.691406 147.109375 24.691406 C 147.109375 24.691406 171.035156 42.628906 171.15625 64.886719 C 171.289062 87.164062 147.570312 105.34375 147.570312 105.34375 C 147.570312 105.34375 123.648438 87.457031 123.550781 65.160156 " fill-opacity="1" fill-rule="nonzero"/><path fill="#5e17eb" d="M 220.375 77.328125 C 231.9375 58.304688 261.65625 55.273438 261.65625 55.273438 C 261.65625 55.273438 272.601562 83.109375 261.03125 102.121094 C 249.457031 121.144531 219.734375 124.15625 219.734375 124.15625 C 219.734375 124.15625 208.765625 96.359375 220.375 77.328125 " fill-opacity="1" fill-rule="nonzero"/><g clip-path="url(#f488c551d8)"><path fill="#5e17eb" d="M 261.210938 119.628906 C 283.4375 120.734375 300.261719 145.4375 300.261719 145.4375 C 300.261719 145.4375 281.019531 168.34375 258.8125 167.214844 C 236.589844 166.09375 219.78125 141.375 219.78125 141.375 C 219.78125 141.375 238.96875 118.476562 261.210938 119.628906 " fill-opacity="1" fill-rule="nonzero"/></g><path fill="#5e17eb" d="M 180.617188 30.484375 C 187.785156 9.394531 216.140625 -0.00390625 216.140625 -0.00390625 C 216.140625 -0.00390625 232.859375 24.789062 225.675781 45.859375 C 218.5 66.949219 190.132812 76.335938 190.132812 76.335938 C 190.132812 76.335938 173.40625 51.578125 180.617188 30.484375 " fill-opacity="1" fill-rule="nonzero"/><path fill="#5e17eb" d="M 195.796875 48.914062 C 194.828125 48.914062 187.820312 84.988281 191.097656 126.984375 C 192.835938 168.972656 204.867188 216.902344 206.539062 240.605469 C 214 274.226562 210.703125 375.003906 212.179688 375.003906 C 201.261719 375.003906 190.339844 375.003906 179.421875 375.003906 C 177.941406 375.003906 193.800781 274.3125 190.546875 240.730469 C 191.84375 217.007812 183.804688 169.058594 185.316406 127.035156 C 185.292969 85.003906 194.828125 48.914062 195.796875 48.914062 " fill-opacity="1" fill-rule="nonzero"/><path fill="#5e17eb" d="M 163.238281 148.484375 C 147.328125 125.984375 147.535156 103.148438 150.921875 83.09375 C 144.429688 102.195312 142.472656 121.6875 153.644531 146.230469 C 157.722656 146.105469 159.359375 149.027344 163.238281 148.484375 " fill-opacity="1" fill-rule="nonzero"/><path fill="#5e17eb" d="M 191.003906 274.480469 C 186.527344 247.09375 169.835938 226.03125 152.667969 214.316406 C 171.625 223.230469 189.304688 241.460938 198.917969 267.144531 C 195.640625 269.824219 194.425781 272.265625 191.003906 274.480469 " fill-opacity="1" fill-rule="nonzero"/><path fill="#5e17eb" d="M 193.679688 218.53125 C 188.847656 190.394531 176.46875 167.140625 160.808594 150.847656 C 161.253906 151.007812 161.695312 151.167969 162.132812 151.335938 C 151.585938 146.335938 140.765625 143.019531 130.050781 141.382812 C 140.386719 141.828125 150.882812 143.507812 161.3125 146.433594 C 161.523438 146.386719 161.734375 146.324219 161.949219 146.277344 C 162.183594 146.476562 162.421875 146.679688 162.652344 146.878906 C 179.5625 161.515625 193.90625 183.035156 201.742188 209.863281 C 199.136719 212.890625 196.445312 215.785156 193.679688 218.53125 " fill-opacity="1" fill-rule="nonzero"/><path fill="#5e17eb" d="M 226.945312 200.183594 C 240.972656 182.894531 270.828125 183.910156 270.828125 183.910156 C 270.828125 183.910156 277.921875 212.976562 263.894531 230.242188 C 249.859375 247.527344 219.992188 246.496094 219.992188 246.496094 C 219.992188 246.496094 212.878906 217.464844 226.945312 200.183594 " fill-opacity="1" fill-rule="nonzero"/><path fill="#5e17eb" d="M 209.648438 299.191406 C 210.730469 263.160156 225.484375 240.707031 241.109375 223.773438 C 223.503906 237.089844 209.425781 254.71875 203.078125 288.6875 C 206.5625 292.066406 206.058594 296.378906 209.648438 299.191406 " fill-opacity="1" fill-rule="nonzero"/><path fill="#5e17eb" d="M 192.472656 156.761719 C 203.660156 143.058594 224.121094 140.367188 243.878906 140.207031 C 223.246094 138.128906 204.796875 139.203125 189.132812 149.90625 C 191.515625 152.683594 189.816406 154.171875 192.472656 156.761719 " fill-opacity="1" fill-rule="nonzero"/><path fill="#5e17eb" d="M 191.96875 145.132812 C 206.578125 138.890625 220.203125 125.574219 227.914062 106.578125 C 222.464844 129.050781 208.59375 145.210938 193.402344 152.746094 C 193.113281 150.101562 192.625 147.558594 191.96875 145.132812 " fill-opacity="1" fill-rule="nonzero"/></svg>